<svg width="25" height="25" viewBox="0 0 25 25" fill="none" xmlns="http://www.w3.org/2000/svg">
<path d="M12.0987 18.0578C9.00791 18.0578 6.49219 15.5428 6.49219 12.4512C6.49219 9.35965 9.00791 6.84473 12.0987 6.84473C15.1895 6.84473 17.7052 9.35965 17.7052 12.4512C17.7052 15.5428 15.1895 18.0578 12.0987 18.0578ZM12.0987 8.44659C9.89054 8.44659 8.09405 10.2431 8.09405 12.4512C8.09405 14.6594 9.89054 16.4559 12.0987 16.4559C14.3069 16.4559 16.1034 14.6594 16.1034 12.4512C16.1034 10.2431 14.3069 8.44659 12.0987 8.44659Z" fill="white"/>
<path d="M18.1067 7.64791C18.7702 7.64791 19.3081 7.11003 19.3081 6.44651C19.3081 5.783 18.7702 5.24512 18.1067 5.24512C17.4432 5.24512 16.9053 5.783 16.9053 6.44651C16.9053 7.11003 17.4432 7.64791 18.1067 7.64791Z" fill="white"/>
<path d="M16.9052 22.8623H7.29402C4.20323 22.8623 1.6875 20.3474 1.6875 17.2558V7.64461C1.6875 4.55301 4.20323 2.03809 7.29402 2.03809H16.9052C19.996 2.03809 22.5117 4.55301 22.5117 7.64461V17.2558C22.5117 20.3474 19.996 22.8623 16.9052 22.8623ZM7.29402 3.63995C5.08585 3.63995 3.28936 5.43644 3.28936 7.64461V17.2558C3.28936 19.464 5.08585 21.2604 7.29402 21.2604H16.9052C19.1134 21.2604 20.9099 19.464 20.9099 17.2558V7.64461C20.9099 5.43644 19.1134 3.63995 16.9052 3.63995H7.29402Z" fill="white"/>
</svg>
