<svg width="1000" height="368" viewBox="0 0 1000 368" fill="none" xmlns="http://www.w3.org/2000/svg">
<g clip-path="url(#clip0_31_1930)">
<path d="M509.114 105.875C509.057 107.615 508.325 109.265 507.073 110.476C505.822 111.686 504.148 112.363 502.407 112.362H433.301C428.772 112.362 424.99 108.69 424.99 104.222C424.99 84.0632 418.013 74.2468 403.742 74.2468C389.47 74.2468 380.266 83.0105 379.996 98.3225C379.69 115.397 389.347 130.917 416.838 157.576C453.031 191.529 467.536 221.602 466.838 261.357C465.7 325.641 421.991 367.195 355.48 367.195C321.514 367.195 295.566 358.113 278.308 340.194C260.793 321.993 252.763 295.286 254.44 260.819C254.497 259.076 255.231 257.424 256.485 256.213C257.74 255.002 259.416 254.327 261.16 254.331H332.64C333.636 254.347 334.616 254.584 335.509 255.024C336.402 255.464 337.186 256.097 337.806 256.877C338.346 257.522 338.741 258.276 338.965 259.086C339.189 259.897 339.236 260.747 339.103 261.577C338.307 274.013 340.474 283.303 345.37 288.444C348.503 291.773 352.873 293.462 358.32 293.462C371.526 293.462 379.262 284.135 379.556 267.881C379.8 253.83 375.357 241.516 351.147 216.608C319.874 186.058 291.833 154.491 292.702 104.859C293.216 76.0705 304.648 49.7427 324.905 30.722C346.324 10.6242 375.614 0 409.617 0C443.68 0.24479 469.494 9.96322 486.348 28.886C502.309 46.8174 509.983 72.7168 509.139 105.875H509.114Z" fill="#ffffff"/>
<path d="M723.313 355.102L723.766 13.2066C723.779 12.3504 723.621 11.5003 723.301 10.7061C722.98 9.91185 722.505 9.18964 721.901 8.58187C721.298 7.9741 720.58 7.49301 719.788 7.16689C718.996 6.84077 718.147 6.67619 717.291 6.68281H610.339C606.741 6.68281 605.162 9.77949 604.134 11.8235L449.275 353.009V353.07L449.214 353.156C447.501 357.354 450.756 361.846 455.297 361.846H530.058C534.097 361.846 536.778 360.622 538.088 358.076L552.934 322.397C554.758 317.636 555.101 317.195 560.291 317.195H631.722C636.692 317.195 636.79 317.293 636.716 322.152L635.113 355.322C635.1 356.177 635.257 357.026 635.577 357.82C635.896 358.613 636.371 359.335 636.973 359.943C637.575 360.55 638.292 361.031 639.082 361.358C639.872 361.685 640.72 361.851 641.575 361.846H717.107C718.042 361.857 718.968 361.664 719.821 361.279C720.673 360.894 721.43 360.327 722.04 359.618C722.566 359.002 722.952 358.279 723.172 357.5C723.391 356.72 723.44 355.902 723.313 355.102ZM591 240.953C590.437 240.956 589.873 240.936 589.311 240.892C589.049 240.87 588.795 240.791 588.567 240.661C588.339 240.531 588.142 240.352 587.99 240.137C587.839 239.922 587.736 239.677 587.689 239.418C587.642 239.16 587.653 238.894 587.72 238.64C587.867 238.15 588.075 237.477 588.381 236.657L641.942 104.124C642.424 102.816 642.98 101.537 643.607 100.293C644.476 98.506 645.529 98.3836 645.859 99.7055C646.141 100.807 639.715 235.788 639.715 235.788C639.213 240.843 638.98 241.051 633.999 241.467L591.049 240.978H590.951L590.988 240.953L591 240.953Z" fill="#ffffff"/>
<path d="M875.675 6.68272H818.894C815.895 6.68272 812.529 8.2739 811.746 11.8479L732.726 354.93C732.553 355.704 732.561 356.507 732.747 357.277C732.934 358.048 733.295 358.765 733.803 359.373C734.462 360.149 735.281 360.772 736.205 361.199C737.129 361.626 738.134 361.846 739.152 361.846H810.118C813.937 361.846 816.544 359.973 817.254 356.73L825.871 317.844C826.483 314.808 825.43 312.458 822.713 311.038C821.438 310.382 820.165 309.721 818.894 309.055L806.593 302.654L794.353 296.265L789.616 293.805C789.231 293.613 788.908 293.315 788.685 292.947C788.462 292.579 788.348 292.154 788.356 291.724C788.372 291.086 788.637 290.481 789.095 290.037C789.552 289.593 790.166 289.346 790.804 289.349L829.69 289.521C841.317 289.582 852.958 288.762 864.402 286.657C944.94 271.785 998.428 207.281 999.97 119.509C1001.29 44.6017 959.481 6.646 875.736 6.646L875.675 6.68272ZM856.348 210.843H854.83C851.415 210.843 850.816 210.476 850.718 210.353C850.656 210.268 873.141 111.541 873.153 111.407C873.729 108.555 873.704 106.915 871.942 105.948C869.689 104.699 836.862 87.3922 836.862 87.3922C836.48 87.1914 836.162 86.8879 835.944 86.5159C835.725 86.1439 835.615 85.7182 835.626 85.2869C835.642 84.6581 835.903 84.0604 836.353 83.6213C836.804 83.1823 837.408 82.9367 838.037 82.9369H889.946C906.103 83.4265 915.111 97.8817 914.683 122.569C913.936 165.299 893.618 209.35 856.348 210.855V210.843Z" fill="#ffffff"/>
<path d="M291.435 172.337V172.496L278.277 229.607C277.567 232.838 274.336 235.201 270.615 235.201H254.715C254.142 235.203 253.585 235.39 253.126 235.734C252.668 236.078 252.332 236.561 252.169 237.11C237.506 286.853 217.653 321.039 191.435 341.565C169.134 359.043 141.644 367.195 104.912 367.195C71.9133 367.195 49.6613 356.583 30.7875 335.629C5.84269 307.942 -4.46325 262.606 1.77906 207.992C13.0397 105.459 66.2218 1.99525 168.62 1.99525C199.771 1.72598 224.226 11.3342 241.239 30.5141C259.232 50.8077 268.363 81.3583 268.412 121.358C268.367 123.112 267.64 124.778 266.385 126.004C265.13 127.229 263.446 127.916 261.692 127.919H186.662C185.347 127.878 184.098 127.335 183.171 126.402C182.244 125.468 181.711 124.215 181.68 122.9C181.068 95.2383 172.867 81.7745 156.564 81.7745C127.8 81.7745 110.836 120.82 101.84 142.46C89.2694 172.692 82.8679 205.531 84.1286 238.236C84.7284 253.463 87.1764 274.87 101.632 283.744C114.447 291.602 132.733 286.388 143.81 277.685C154.875 268.97 163.785 253.903 167.531 240.158C168.057 238.248 168.094 236.767 167.592 236.106C167.066 235.421 165.609 235.262 164.495 235.262H145.23C144.21 235.265 143.202 235.046 142.276 234.618C141.35 234.191 140.528 233.567 139.869 232.79C139.363 232.183 139.003 231.467 138.819 230.699C138.634 229.93 138.629 229.129 138.804 228.359L151.974 171.15C152.623 168.224 155.279 166.009 158.547 165.617V165.47H284.984C285.278 165.47 285.584 165.47 285.866 165.532C289.146 165.96 291.459 169.008 291.398 172.337H291.435Z" fill="#ffffff"/>
</g>
<defs>
<clipPath id="clip0_31_1930">
<rect width="1000" height="367.195" fill="white"/>
</clipPath>
</defs>
</svg>
