<svg width="25" height="25" viewBox="0 0 25 25" fill="none" xmlns="http://www.w3.org/2000/svg">
<path d="M2.85742 8.59928H6.70833V21.6924H2.85742V8.59928ZM4.77132 7.05892H4.74976C3.60065 7.05892 2.85742 6.20248 2.85742 5.13269C2.85742 4.0398 3.62375 3.20801 4.79366 3.20801C5.96511 3.20801 6.68677 4.0398 6.70833 5.13269C6.70833 6.20171 5.96511 7.05892 4.77132 7.05892ZM21.3418 21.6924H17.4909V14.6845C17.4909 12.9916 16.5474 11.8364 15.0325 11.8364C13.8764 11.8364 13.251 12.6158 12.9476 13.369C12.8367 13.6386 12.8698 14.3841 12.8698 14.7607V21.6924H9.01888V8.59928H12.8698V10.6141C13.4251 9.75456 14.2946 8.59928 16.5189 8.59928C19.2746 8.59928 21.341 10.3322 21.341 14.2016L21.3418 21.6924Z" fill="white"/>
</svg>
